name ./resultDataOpenSim/trcMotMarkerGrf/sub10/grf-03-07.mot
datacolumns 19
datarows 30
range 1.54800000 1.66400000
endheader

                time	     ground_force_vx	     ground_force_vy	     ground_force_vz	     ground_force_px	     ground_force_py	     ground_force_pz	   l_ground_force_vx	   l_ground_force_vy	   l_ground_force_vz	   l_ground_force_px	   l_ground_force_py	   l_ground_force_pz	     ground_torque_x	     ground_torque_y	     ground_torque_z	   l_ground_torque_x	   l_ground_torque_y	   l_ground_torque_z	
          1.54800000	        -22.79511870	        429.63323688	        -27.96300141	          0.78859663	          0.00000000	          0.06885464	          0.00000000	          0.00000000	          0.00000000	          0.00000000	          0.00000000	          0.00000000	          0.00000000	          1.21666908	          0.00000000	          0.00000000	          0.00000000	          0.00000000	
          1.55200000	        -21.39802767	        423.62242357	        -27.34915780	          0.79037376	          0.00000000	          0.06887702	          0.00000000	          0.00000000	          0.00000000	          0.00000000	          0.00000000	          0.00000000	          0.00000000	          1.31613009	          0.00000000	          0.00000000	          0.00000000	          0.00000000	
          1.55600000	        -19.99495414	        418.13312446	        -26.40145299	          0.79216738	          0.00000000	          0.06886845	          0.00000000	          0.00000000	          0.00000000	          0.00000000	          0.00000000	          0.00000000	          0.00000000	          1.39185078	          0.00000000	          0.00000000	          0.00000000	          0.00000000	
          1.56000000	        -18.48710307	        413.17384015	        -25.17351514	          0.79395041	          0.00000000	          0.06883304	          0.00000000	          0.00000000	          0.00000000	          0.00000000	          0.00000000	          0.00000000	          0.00000000	          1.44547875	          0.00000000	          0.00000000	          0.00000000	          0.00000000	
          1.56400000	        -16.84347133	        408.78401466	        -23.77844633	          0.79570337	          0.00000000	          0.06877590	          0.00000000	          0.00000000	          0.00000000	          0.00000000	          0.00000000	          0.00000000	          0.00000000	          1.48462054	          0.00000000	          0.00000000	          0.00000000	          0.00000000	
          1.56800000	        -15.10315814	        405.01428388	        -22.36278164	          0.79741841	          0.00000000	          0.06869867	          0.00000000	          0.00000000	          0.00000000	          0.00000000	          0.00000000	          0.00000000	          0.00000000	          1.52157432	          0.00000000	          0.00000000	          0.00000000	          0.00000000	
          1.57200000	        -13.35360572	        401.89452669	        -21.07905697	          0.79909430	          0.00000000	          0.06860259	          0.00000000	          0.00000000	          0.00000000	          0.00000000	          0.00000000	          0.00000000	          0.00000000	          1.57060973	          0.00000000	          0.00000000	          0.00000000	          0.00000000	
          1.57600000	        -11.69493836	        399.41892314	        -20.06171286	          0.80073211	          0.00000000	          0.06849420	          0.00000000	          0.00000000	          0.00000000	          0.00000000	          0.00000000	          0.00000000	          0.00000000	          1.64446915	          0.00000000	          0.00000000	          0.00000000	          0.00000000	
          1.58000000	        -10.20435099	        397.55626546	        -19.40670915	          0.80233495	          0.00000000	          0.06838671	          0.00000000	          0.00000000	          0.00000000	          0.00000000	          0.00000000	          0.00000000	          0.00000000	          1.75123248	          0.00000000	          0.00000000	          0.00000000	          0.00000000	
          1.58400000	         -8.91379304	        396.26928483	        -19.15539034	          0.80390608	          0.00000000	          0.06829439	          0.00000000	          0.00000000	          0.00000000	          0.00000000	          0.00000000	          0.00000000	          0.00000000	          1.89261402	          0.00000000	          0.00000000	          0.00000000	          0.00000000	
          1.58800000	         -7.80471599	        395.52830238	        -19.28610863	          0.80544742	          0.00000000	          0.06823068	          0.00000000	          0.00000000	          0.00000000	          0.00000000	          0.00000000	          0.00000000	          0.00000000	          2.06414559	          0.00000000	          0.00000000	          0.00000000	          0.00000000	
          1.59200000	         -6.81281781	        395.31568010	        -19.71761027	          0.80695376	          0.00000000	          0.06820430	          0.00000000	          0.00000000	          0.00000000	          0.00000000	          0.00000000	          0.00000000	          0.00000000	          2.25690187	          0.00000000	          0.00000000	          0.00000000	          0.00000000	
          1.59600000	         -5.83898113	        395.62542273	        -20.32595563	          0.80839609	          0.00000000	          0.06821781	          0.00000000	          0.00000000	          0.00000000	          0.00000000	          0.00000000	          0.00000000	          0.00000000	          2.45992112	          0.00000000	          0.00000000	          0.00000000	          0.00000000	
          1.60000000	         -4.77013683	        396.46931144	        -20.97341480	          0.80973335	          0.00000000	          0.06827224	          0.00000000	          0.00000000	          0.00000000	          0.00000000	          0.00000000	          0.00000000	          0.00000000	          2.66251771	          0.00000000	          0.00000000	          0.00000000	          0.00000000	
          1.60400000	         -3.50805867	        397.87962659	        -21.54267777	          0.81091809	          0.00000000	          0.06835720	          0.00000000	          0.00000000	          0.00000000	          0.00000000	          0.00000000	          0.00000000	          0.00000000	          2.85610955	          0.00000000	          0.00000000	          0.00000000	          0.00000000	
          1.60800000	         -1.99248240	        399.89119174	        -21.96421936	          0.81192520	          0.00000000	          0.06845406	          0.00000000	          0.00000000	          0.00000000	          0.00000000	          0.00000000	          0.00000000	          0.00000000	          3.03557110	          0.00000000	          0.00000000	          0.00000000	          0.00000000	
          1.61200000	         -0.20801011	        402.52375853	        -22.22814839	          0.81275110	          0.00000000	          0.06855636	          0.00000000	          0.00000000	          0.00000000	          0.00000000	          0.00000000	          0.00000000	          0.00000000	          3.20015589	          0.00000000	          0.00000000	          0.00000000	          0.00000000	
          1.61600000	          1.82094406	        405.78317165	        -22.38131338	          0.81341001	          0.00000000	          0.06865963	          0.00000000	          0.00000000	          0.00000000	          0.00000000	          0.00000000	          0.00000000	          0.00000000	          3.35377097	          0.00000000	          0.00000000	          0.00000000	          0.00000000	
          1.62000000	          4.03964211	        409.65933230	        -22.51199669	          0.81394733	          0.00000000	          0.06876219	          0.00000000	          0.00000000	          0.00000000	          0.00000000	          0.00000000	          0.00000000	          0.00000000	          3.50421526	          0.00000000	          0.00000000	          0.00000000	          0.00000000	
          1.62400000	          6.37774443	        414.11220313	        -22.72604531	          0.81441185	          0.00000000	          0.06886486	          0.00000000	          0.00000000	          0.00000000	          0.00000000	          0.00000000	          0.00000000	          0.00000000	          3.66123150	          0.00000000	          0.00000000	          0.00000000	          0.00000000	
          1.62800000	          8.77103754	        419.07136954	        -23.12363006	          0.81482989	          0.00000000	          0.06896960	          0.00000000	          0.00000000	          0.00000000	          0.00000000	          0.00000000	          0.00000000	          0.00000000	          3.83378577	          0.00000000	          0.00000000	          0.00000000	          0.00000000	
          1.63200000	         11.18348525	        424.45333534	        -23.78117356	          0.81521909	          0.00000000	          0.06907711	          0.00000000	          0.00000000	          0.00000000	          0.00000000	          0.00000000	          0.00000000	          0.00000000	          4.02747483	          0.00000000	          0.00000000	          0.00000000	          0.00000000	
          1.63600000	         13.61678675	        430.18248347	        -24.73597539	          0.81559762	          0.00000000	          0.06918421	          0.00000000	          0.00000000	          0.00000000	          0.00000000	          0.00000000	          0.00000000	          0.00000000	          4.24299379	          0.00000000	          0.00000000	          0.00000000	          0.00000000	
          1.64000000	         16.09937362	        436.21979424	        -25.97520250	          0.81598376	          0.00000000	          0.06928669	          0.00000000	          0.00000000	          0.00000000	          0.00000000	          0.00000000	          0.00000000	          0.00000000	          4.47613069	          0.00000000	          0.00000000	          0.00000000	          0.00000000	
          1.64400000	         18.66087015	        442.58846650	        -27.43481036	          0.81639744	          0.00000000	          0.06937927	          0.00000000	          0.00000000	          0.00000000	          0.00000000	          0.00000000	          0.00000000	          0.00000000	          4.71908841	          0.00000000	          0.00000000	          0.00000000	          0.00000000	
          1.64800000	         21.30732495	        449.36699945	        -29.00944711	          0.81685556	          0.00000000	          0.06945187	          0.00000000	          0.00000000	          0.00000000	          0.00000000	          0.00000000	          0.00000000	          0.00000000	          4.96246694	          0.00000000	          0.00000000	          0.00000000	          0.00000000	
          1.65200000	         24.00788308	        456.64944867	        -30.57152292	          0.81737317	          0.00000000	          0.06949166	          0.00000000	          0.00000000	          0.00000000	          0.00000000	          0.00000000	          0.00000000	          0.00000000	          5.19718560	          0.00000000	          0.00000000	          0.00000000	          0.00000000	
          1.65600000	         26.69503928	        464.50387943	        -31.99757658	          0.81796945	          0.00000000	          0.06948888	          0.00000000	          0.00000000	          0.00000000	          0.00000000	          0.00000000	          0.00000000	          0.00000000	          5.41591449	          0.00000000	          0.00000000	          0.00000000	          0.00000000	
          1.66000000	         29.27654294	        472.95528284	        -33.19547669	          0.81866761	          0.00000000	          0.06944127	          0.00000000	          0.00000000	          0.00000000	          0.00000000	          0.00000000	          0.00000000	          0.00000000	          5.61394746	          0.00000000	          0.00000000	          0.00000000	          0.00000000	
          1.66400000	         31.65385636	        481.99363451	        -34.12242312	          0.81949185	          0.00000000	          0.06935383	          0.00000000	          0.00000000	          0.00000000	          0.00000000	          0.00000000	          0.00000000	          0.00000000	          5.78962574	          0.00000000	          0.00000000	          0.00000000	          0.00000000	
